/* XPM */
static char * sonicawe16_xpm[] = {
"16 16 20 1",
" 	c None",
".	c #B86B05",
"+	c #C66604",
"@	c #DA6500",
"#	c #CF7D00",
"$	c #668000",
"%	c #CE7E00",
"&	c #BFA300",
"*	c #917400",
"=	c #D17800",
"-	c #D56E00",
";	c #C71829",
">	c #C62926",
",	c #C1172F",
"'	c #C2153F",
")	c #CB4617",
"!	c #DA2E18",
"~	c #9F0272",
"{	c #9F076B",
"]	c #9F066C",
"                ",
"       .+@#     ",
"    $      %&   ",
"   *        =   ",
"             -  ",
"                ",
"                ",
"                ",
"                ",
"                ",
"                ",
"                ",
"                ",
"  ;>            ",
"    ,'    )!    ",
"      ~{]       "};
