/* XPM */
static char * sonicawe16_xpm[] = {
"16 16 18 1",
" 	c None",
".	c #F1C474",
"+	c #EED7A0",
"@	c #EFA680",
"#	c #DD7247",
"$	c #E9B3AA",
"%	c #ECD39F",
"&	c #D1596A",
"*	c #DB8077",
"=	c #D8991F",
"-	c #EAC887",
";	c #ED8B57",
">	c #CC5273",
",	c #E1ABC3",
"'	c #E6C5B3",
")	c #E8C5BE",
"!	c #E4BCD2",
"~	c #E08172",
"                ",
"                ",
"                ",
"                ",
"                ",
"                ",
"                ",
"                ",
" .              ",
"            +@  ",
"  #$       %    ",
"   &*    =-;    ",
"     >,')!~     ",
"                ",
"                ",
"                "};
