/* XPM */
static char * sonicawe_xpm[] = {
"32 32 90 1",
" 	c None",
".	c #B8A500",
"+	c #BF8D00",
"@	c #BD8600",
"#	c #C48400",
"$	c #D08400",
"%	c #D17B00",
"&	c #D07E00",
"*	c #5D8300",
"=	c #2C6400",
"-	c #5E3702",
";	c #882304",
">	c #A2100C",
",	c #AF0E19",
"'	c #B10F15",
")	c #D72806",
"!	c #EC3A00",
"~	c #EC3900",
"{	c #E44E00",
"]	c #C39A00",
"^	c #748E00",
"/	c #3A5700",
"(	c #ED3701",
"_	c #E25100",
":	c #C69100",
"<	c #C29D00",
"[	c #6E8600",
"}	c #DE5801",
"|	c #C98B00",
"1	c #BFA000",
"2	c #9D9300",
"3	c #716C00",
"4	c #D07A00",
"5	c #BDA300",
"6	c #C89500",
"7	c #BE7A00",
"8	c #D47200",
"9	c #BFA100",
"0	c #C09C00",
"a	c #CC9900",
"b	c #C79000",
"c	c #D37200",
"d	c #C49A00",
"e	c #D26600",
"f	c #D76A00",
"g	c #C09F00",
"h	c #A7A900",
"i	c #8BD000",
"j	c #A4BA00",
"k	c #E48900",
"l	c #E88500",
"m	c #E98700",
"n	c #E88C00",
"o	c #DF5B06",
"p	c #EA3700",
"q	c #DD6107",
"r	c #C60727",
"s	c #EC3600",
"t	c #D74F10",
"u	c #C10032",
"v	c #EB3700",
"w	c #CE281D",
"x	c #BE0036",
"y	c #CA7500",
"z	c #C97500",
"A	c #ED3700",
"B	c #C00134",
"C	c #BE0038",
"D	c #C1022F",
"E	c #CB4919",
"F	c #C87500",
"G	c #C97300",
"H	c #CA7600",
"I	c #E93403",
"J	c #BE0039",
"K	c #BD0037",
"L	c #C0003B",
"M	c #CA8E04",
"N	c #C66F0A",
"O	c #D72F17",
"P	c #E22D0E",
"Q	c #DA2821",
"R	c #AD0054",
"S	c #A2006F",
"T	c #9C0075",
"U	c #9C0073",
"V	c #9D0074",
"W	c #9F0071",
"X	c #9D0071",
"Y	c #9C0071",
"                                ",
"                                ",
"             .+@#$%&            ",
"          *=-;>,')!~{]          ",
"         ^/         (_: <       ",
"        [             }|1<      ",
"      23                45      ",
"     67                  890    ",
"    ab                    cd    ",
"                          ef    ",
"    g                      h    ",
"                           i    ",
"                            j   ",
"                                ",
"                                ",
"                                ",
"                                ",
"                                ",
"                                ",
"                                ",
"                                ",
" k                              ",
"  l                             ",
"  mn                            ",
"   o                        p   ",
"   qr                      s    ",
"    tu                    v     ",
"     wx             yz   A      ",
"      BCDE       FFGH  I(       ",
"        JKL    MN    OPQ        ",
"          RSTU    TVW           ",
"              XYX               "};
