/* XPM */
static char * sonicawe_xpm[] = {
"32 32 79 1",
" 	c None",
".	c #EE9568",
"+	c #EE9063",
"@	c #ED8959",
"#	c #ED8756",
"$	c #F0C26C",
"%	c #F1C576",
"&	c #EDD3A1",
"*	c #E8C689",
"=	c #F09B73",
"-	c #EDA632",
";	c #ECD09C",
">	c #F4C0A8",
",	c #EB7F4B",
"'	c #F0B246",
")	c #EDA52F",
"!	c #F0DEA9",
"~	c #ED9063",
"{	c #E3813C",
"]	c #D66066",
"^	c #EED6AA",
"/	c #E7C384",
"(	c #EFA07A",
"_	c #D86043",
":	c #D57088",
"<	c #EEC4AD",
"[	c #F2DFBD",
"}	c #EE8D5E",
"|	c #EC824F",
"1	c #CF454D",
"2	c #DB8296",
"3	c #F0CEB1",
"4	c #F1E1A0",
"5	c #D89824",
"6	c #DEAA4B",
"7	c #EA743C",
"8	c #EB7D47",
"9	c #CA435B",
"0	c #CC455C",
"a	c #D97771",
"b	c #EBBA9B",
"c	c #F5E0CA",
"d	c #EAD182",
"e	c #DCA040",
"f	c #D99B2B",
"g	c #D38C0B",
"h	c #D38907",
"i	c #DEA947",
"j	c #EBCF99",
"k	c #F8EEE0",
"l	c #F0976C",
"m	c #EA6C30",
"n	c #CD4E65",
"o	c #CA435C",
"p	c #C83A55",
"q	c #DD7491",
"r	c #F0BFD6",
"s	c #EDC4C9",
"t	c #F0CDB5",
"u	c #EBD582",
"v	c #EAC798",
"w	c #F1DCC0",
"x	c #F7EDEE",
"y	c #F0CBCC",
"z	c #ECB3A0",
"A	c #E86A35",
"B	c #E16743",
"C	c #BF5E90",
"D	c #C06798",
"E	c #C675A0",
"F	c #D08EB1",
"G	c #D59BBD",
"H	c #D295B8",
"I	c #CC84A9",
"J	c #C36E9D",
"K	c #C86E8F",
"L	c #C36F9B",
"M	c #C4719C",
"N	c #C5729C",
"                                ",
"                                ",
"                                ",
"                                ",
"                                ",
"                                ",
"                                ",
"                                ",
"                                ",
"                                ",
"                                ",
"                             .  ",
"                             +  ",
"                             @  ",
"                             #  ",
"                                ",
"  $                             ",
"   %                     &* =   ",
"   -                     ; >,   ",
"   ')                   !  ~    ",
"    {]                 ^/ (     ",
"     _:<              [  }|     ",
"      1234          56  78      ",
"       90abc  defghijklm        ",
"        nopqrstuvwxyzAB         ",
"           CDEFGHIEJK           ",
"              LMN               ",
"                                ",
"                                ",
"                                ",
"                                ",
"                                "};
